<svg width="174" height="68" fill="none" xmlns="http://www.w3.org/2000/svg"><path d="M15.104 23c-.299 0-.459-.139-.48-.416l-.352-2.464c-.021-.107-.085-.16-.192-.16H7.584c-.085 0-.16.053-.224.16l-.992 2.464c-.085.277-.277.416-.576.416H.512c-.363 0-.48-.181-.352-.544L9.344.984A.577.577 0 019.92.6h6.592c.256 0 .416.128.48.384l3.904 21.472v.128c0 .277-.16.416-.48.416h-5.312zm-5.76-7.872c-.021.15.021.224.128.224h3.808c.128 0 .192-.075.192-.224l-1.088-7.072c-.021-.085-.064-.128-.128-.128-.043 0-.085.043-.128.128l-2.784 7.072zM23.244 23a.476.476 0 01-.352-.128c-.064-.085-.086-.203-.064-.352l2.655-21.44a.602.602 0 01.16-.352.476.476 0 01.352-.128h4.896c.15 0 .257.043.32.128.086.085.118.203.097.352l-2.625 21.44a.527.527 0 01-.192.352.476.476 0 01-.351.128h-4.896zM42.438 23c-.257 0-.416-.117-.48-.352l-2.4-8.096c-.043-.107-.118-.16-.224-.16h-1.217c-.106 0-.18.064-.223.192l-.96 7.936a.527.527 0 01-.192.352.476.476 0 01-.352.128h-4.896a.476.476 0 01-.352-.128c-.064-.085-.086-.203-.064-.352l2.655-21.44a.602.602 0 01.16-.352.476.476 0 01.352-.128h9.409c1.92 0 3.445.544 4.575 1.632 1.131 1.088 1.697 2.56 1.697 4.416 0 .213-.022.576-.065 1.088-.17 1.408-.66 2.645-1.471 3.712a6.94 6.94 0 01-3.04 2.304.192.192 0 00-.129.128.136.136 0 000 .128l2.88 8.416a.446.446 0 01.032.192.398.398 0 01-.128.288.575.575 0 01-.352.096h-5.215zM39.172 5.752c-.106 0-.18.064-.224.192l-.447 3.68c0 .128.053.192.16.192h2.88c.725 0 1.322-.213 1.791-.64.491-.427.736-.981.736-1.664 0-.533-.192-.96-.576-1.28-.362-.32-.842-.48-1.44-.48h-2.88zM63.75 23.256c-2.304 0-4.117-.587-5.44-1.76-1.301-1.173-1.952-2.763-1.952-4.768 0-.512.021-.896.064-1.152l.192-1.696a.602.602 0 01.16-.352.596.596 0 01.384-.128h4.896c.15 0 .256.043.32.128.085.085.117.203.096.352l-.224 1.664a2.418 2.418 0 00-.032.448c0 .64.192 1.152.576 1.536.384.384.917.576 1.6.576.747 0 1.387-.235 1.92-.704.533-.47.843-1.088.928-1.856L69.03 1.08a.602.602 0 01.16-.352.55.55 0 01.352-.128h4.896c.128 0 .224.043.288.128.085.085.117.203.096.352l-1.76 14.496c-.192 1.515-.715 2.859-1.568 4.032-.853 1.152-1.952 2.048-3.296 2.688-1.344.64-2.827.96-4.448.96zM82.929 23.384c-1.579 0-2.955-.299-4.128-.896a6.541 6.541 0 01-2.688-2.528c-.619-1.088-.928-2.368-.928-3.84 0-.427.032-.864.096-1.312l.736-6.016c.213-1.664.757-3.136 1.632-4.416A8.951 8.951 0 0181.04 1.4C82.449.696 84.017.344 85.745.344c1.578 0 2.954.299 4.128.896 1.173.576 2.07 1.408 2.688 2.496.64 1.067.96 2.325.96 3.776 0 .405-.032.832-.096 1.28l-.736 6.016c-.192 1.707-.736 3.21-1.632 4.512a9.151 9.151 0 01-3.424 3.008c-1.408.704-2.976 1.056-4.704 1.056zm.64-5.152c.874 0 1.61-.288 2.208-.864.597-.597.95-1.387 1.056-2.368l.768-6.272a3.81 3.81 0 00.032-.576c0-.81-.224-1.45-.672-1.92-.448-.49-1.067-.736-1.856-.736-.854 0-1.579.299-2.176.896-.598.576-.95 1.355-1.056 2.336L81.105 15c-.022.128-.032.32-.032.576 0 .81.224 1.461.672 1.952.448.47 1.056.704 1.824.704zM105.219 23c-.256 0-.416-.117-.48-.352l-2.4-8.096c-.043-.107-.118-.16-.224-.16h-1.216c-.107 0-.182.064-.224.192l-.96 7.936a.528.528 0 01-.192.352.476.476 0 01-.352.128h-4.896a.476.476 0 01-.352-.128c-.064-.085-.086-.203-.064-.352l2.656-21.44a.601.601 0 01.16-.352.476.476 0 01.352-.128h9.408c1.92 0 3.445.544 4.576 1.632 1.13 1.088 1.696 2.56 1.696 4.416 0 .213-.022.576-.064 1.088-.171 1.408-.662 2.645-1.472 3.712a6.945 6.945 0 01-3.04 2.304.192.192 0 00-.128.128.132.132 0 000 .128l2.88 8.416a.451.451 0 01.032.192.4.4 0 01-.128.288.577.577 0 01-.352.096h-5.216zm-3.264-17.248c-.107 0-.182.064-.224.192l-.448 3.68c0 .128.053.192.16.192h2.88c.725 0 1.322-.213 1.792-.64.49-.427.736-.981.736-1.664 0-.533-.192-.96-.576-1.28-.363-.32-.843-.48-1.44-.48h-2.88zM113.369 23a.474.474 0 01-.352-.128c-.064-.085-.086-.203-.064-.352l2.656-21.44a.596.596 0 01.16-.352.474.474 0 01.352-.128h7.968c1.557 0 2.912.256 4.064.768 1.152.512 2.037 1.237 2.656 2.176.64.939.96 2.037.96 3.296 0 .213-.022.533-.064.96l-.96 8c-.171 1.43-.683 2.688-1.536 3.776-.854 1.088-1.963 1.93-3.328 2.528-1.344.597-2.859.896-4.544.896h-7.968zm6.016-5.344c0 .128.053.192.16.192h2.656c.682 0 1.28-.277 1.792-.832.533-.576.874-1.323 1.024-2.24l.736-5.952a3.85 3.85 0 00.032-.576c0-.768-.192-1.376-.576-1.824-.384-.448-.907-.672-1.568-.672h-2.592c-.107 0-.182.064-.224.192l-1.44 11.712zM145.042 23c-.299 0-.459-.139-.48-.416l-.352-2.464c-.022-.107-.086-.16-.192-.16h-6.496c-.086 0-.16.053-.224.16l-.992 2.464c-.086.277-.278.416-.576.416h-5.28c-.363 0-.48-.181-.352-.544L139.282.984a.576.576 0 01.576-.384h6.592c.256 0 .416.128.48.384l3.904 21.472v.128c0 .277-.16.416-.48.416h-5.312zm-5.76-7.872c-.022.15.021.224.128.224h3.808c.128 0 .192-.075.192-.224l-1.088-7.072c-.022-.085-.064-.128-.128-.128-.043 0-.086.043-.128.128l-2.784 7.072zM167.581 1.08a.602.602 0 01.16-.352.476.476 0 01.352-.128h4.896c.149 0 .256.043.32.128.085.085.117.203.096.352l-2.624 21.44a.524.524 0 01-.192.352.476.476 0 01-.352.128h-4.672c-.256 0-.427-.107-.512-.32l-4.992-10.816c-.043-.085-.085-.117-.128-.096-.043.021-.075.075-.096.16l-1.216 10.592a.524.524 0 01-.192.352.476.476 0 01-.352.128h-4.896a.476.476 0 01-.352-.128c-.064-.085-.085-.203-.064-.352l2.656-21.44a.602.602 0 01.16-.352.476.476 0 01.352-.128h4.672c.277 0 .459.107.544.32l4.928 10.816c.043.085.085.117.128.096.043-.021.075-.075.096-.16l1.28-10.592zM15.104 61c-.299 0-.459-.139-.48-.416l-.352-2.464c-.021-.107-.085-.16-.192-.16H7.584c-.085 0-.16.053-.224.16l-.992 2.464c-.085.277-.277.416-.576.416H.512c-.363 0-.48-.181-.352-.544l9.184-21.472a.577.577 0 01.576-.384h6.592c.256 0 .416.128.48.384l3.904 21.472v.128c0 .277-.16.416-.48.416h-5.312zm-5.76-7.872c-.021.15.021.224.128.224h3.808c.128 0 .192-.075.192-.224l-1.088-7.072c-.021-.085-.064-.128-.128-.128-.043 0-.085.043-.128.128l-2.784 7.072zM23.052 61a.476.476 0 01-.352-.128c-.064-.085-.086-.203-.064-.352l2.655-21.44a.602.602 0 01.16-.352.476.476 0 01.352-.128H30.7c.15 0 .256.043.32.128.086.085.118.203.097.352L28.49 60.52a.527.527 0 01-.192.352.476.476 0 01-.351.128h-4.896zM38.158 61.256c-1.749 0-3.232-.437-4.447-1.312-1.195-.896-1.984-2.133-2.368-3.712-.171-.619-.256-1.355-.256-2.208 0-.64.02-1.12.064-1.44.17-1.387.533-2.592 1.088-3.616a8.342 8.342 0 013.264-3.552c1.429-.875 3.018-1.312 4.767-1.312 1.771 0 3.275.459 4.512 1.376 1.238.896 2.017 2.027 2.337 3.392.085.448.127.853.127 1.216-.02.277-.18.448-.48.512l-4.895.8h-.096c-.278 0-.416-.139-.416-.416l-.032-.448a1.518 1.518 0 00-.608-.896c-.3-.256-.672-.384-1.12-.384-.832 0-1.462.384-1.888 1.152-.32.555-.544 1.29-.672 2.208-.043.427-.065.736-.065.928 0 .47.054.896.16 1.28.235.853.78 1.28 1.633 1.28.895 0 1.578-.49 2.047-1.472l.032-.128c.043-.17.118-.288.225-.352a.43.43 0 01.352-.096l4.767.832c.278.064.385.235.32.512a4.928 4.928 0 01-.32.992c-.725 1.557-1.813 2.763-3.264 3.616-1.429.832-3.018 1.248-4.768 1.248zM59.285 44.104c1.43 0 2.592.448 3.488 1.344.896.875 1.344 2.09 1.344 3.648 0 .192-.021.523-.064.992l-1.28 10.432a.527.527 0 01-.192.352.476.476 0 01-.352.128h-4.896a.476.476 0 01-.352-.128c-.064-.085-.085-.203-.064-.352l1.12-9.12c.021-.085.032-.213.032-.384 0-.533-.139-.96-.416-1.28-.256-.32-.619-.48-1.088-.48-.533 0-.981.203-1.344.608-.363.384-.587.896-.672 1.536l-1.12 9.12a.527.527 0 01-.192.352.476.476 0 01-.352.128h-4.896a.476.476 0 01-.352-.128c-.064-.085-.085-.203-.064-.352l2.656-21.44a.602.602 0 01.16-.352.476.476 0 01.352-.128h4.896c.15 0 .256.043.32.128.085.085.117.203.096.352l-.832 6.848c-.021.107-.01.17.032.192.043.021.085-.01.128-.096.96-1.28 2.261-1.92 3.904-1.92zM81.306 51.784c0 .512-.075 1.163-.224 1.952-.043.299-.213.448-.512.448h-9.248c-.128 0-.192.053-.192.16 0 .256.053.47.16.64.17.363.501.672.992.928.49.235 1.067.352 1.728.352.555 0 1.077-.085 1.568-.256.512-.192.95-.437 1.312-.736a.551.551 0 01.352-.128c.128 0 .235.064.32.192l1.952 3.104a.485.485 0 01-.096.672c-.832.725-1.813 1.27-2.944 1.632-1.11.341-2.272.512-3.488.512-1.941 0-3.541-.416-4.8-1.248-1.259-.832-2.101-2.016-2.528-3.552-.213-.661-.32-1.44-.32-2.336 0-.555.021-.97.064-1.248.15-1.28.48-2.475.992-3.584.768-1.621 1.845-2.89 3.232-3.808 1.387-.917 2.955-1.376 4.704-1.376 1.365 0 2.57.341 3.616 1.024 1.067.661 1.888 1.579 2.464 2.752.597 1.152.896 2.453.896 3.904zm-7.648-2.528c-.832 0-1.472.427-1.92 1.28l-.16.32c-.043.15.01.224.16.224h3.488c.107 0 .16-.053.16-.16l-.032-.384c-.064-.405-.245-.715-.544-.928-.299-.235-.683-.352-1.152-.352zM102.943 44.104c1.451 0 2.571.416 3.36 1.248.789.81 1.184 1.973 1.184 3.488 0 .384-.032.8-.096 1.248l-1.28 10.432a.524.524 0 01-.192.352.434.434 0 01-.32.128h-4.928a.434.434 0 01-.32-.128c-.064-.085-.085-.203-.064-.352l1.12-9.12c.021-.085.032-.224.032-.416 0-.533-.128-.95-.384-1.248-.256-.32-.597-.48-1.024-.48-.49 0-.917.203-1.28.608-.341.384-.555.896-.64 1.536l-1.12 9.12a.527.527 0 01-.192.352.476.476 0 01-.352.128h-4.896a.476.476 0 01-.352-.128c-.064-.085-.085-.203-.064-.352l1.12-9.12c.021-.085.032-.213.032-.384 0-.533-.139-.96-.416-1.28-.256-.32-.619-.48-1.088-.48-.448 0-.843.139-1.184.416-.32.277-.555.661-.704 1.152l-.064.256-1.152 9.44a.527.527 0 01-.192.352.476.476 0 01-.352.128h-4.896a.476.476 0 01-.352-.128c-.064-.085-.085-.203-.064-.352l1.952-15.68a.602.602 0 01.16-.352.476.476 0 01.352-.128h4.896c.15 0 .256.043.32.128.085.085.117.203.096.352l-.192 1.536c-.021.085-.01.139.032.16.064 0 .117-.043.16-.128 1.003-1.536 2.421-2.304 4.256-2.304 1.045 0 1.93.245 2.656.736.725.49 1.237 1.195 1.536 2.112.043.085.085.128.128.128.064-.021.107-.075.128-.16 1.045-1.877 2.592-2.816 4.64-2.816zM106.593 67.368c-.149 0-.203-.16-.16-.48l.48-3.968a.756.756 0 01.128-.352.397.397 0 01.288-.128c1.365 0 2.336-.085 2.912-.256.597-.17.971-.523 1.12-1.056V61a.138.138 0 000-.128l-2.944-15.968v-.128c0-.277.16-.416.48-.416h5.216c.299 0 .448.139.448.416l.608 8.448c.021.085.064.128.128.128s.107-.043.128-.128l2.688-8.448c.085-.277.277-.416.576-.416h5.088c.256 0 .384.096.384.288l-.064.256-7.04 16.16c-.747 1.643-1.483 2.89-2.208 3.744-.704.853-1.675 1.493-2.912 1.92-1.237.427-2.944.64-5.12.64h-.224z" fill="#B3B3B3"/></svg>
